<svg width="33" height="14" viewBox="0 0 33 14" fill="none" xmlns="http://www.w3.org/2000/svg">
<g clip-path="url(#clip0_238_2742)">
<path d="M29.6717 0.83606H3.33158C1.51317 0.83606 0.0390625 2.30789 0.0390625 4.12348V9.87646C0.0390625 11.6921 1.51317 13.1639 3.33158 13.1639H29.6717C31.4901 13.1639 32.9642 11.6921 32.9642 9.87646V4.12348C32.9642 2.30789 31.4901 0.83606 29.6717 0.83606Z" fill="#FFCC00"/>
<mask id="mask0_238_2742" style="mask-type:luminance" maskUnits="userSpaceOnUse" x="0" y="4" width="33" height="6">
<path d="M0.863281 4.73999H32.1422V9.26019H0.863281V4.73999Z" fill="white"/>
</mask>
<g mask="url(#mask0_238_2742)">
<path d="M0.863281 8.34385H5.09334L4.86204 8.66561H0.863281V8.34385ZM0.863281 7.74801H5.52301L5.2913 8.06853H0.863281V7.74801ZM0.863281 8.94093H4.66367L4.4336 9.25981H0.863281V8.94093ZM32.1422 8.66561H27.9286L28.1595 8.34426H32.1422V8.66561ZM32.1422 9.26022H27.4997L27.7298 8.94093H32.1422V9.26022ZM28.5891 7.74801H32.1422V8.06894H28.3578L28.5891 7.74801ZM4.96041 9.25981L6.96761 6.4729H9.45839C9.73373 6.4729 9.73003 6.57974 9.59544 6.7663C9.4588 6.95533 9.22627 7.28078 9.08716 7.47269C9.01678 7.57008 8.88879 7.74801 9.31229 7.74801H12.6488C12.3714 8.13633 11.4714 9.25981 9.85514 9.25981H4.96041ZM16.4558 7.74801L15.3672 9.25981H12.4962C12.4962 9.25981 13.5839 7.7476 13.5847 7.7476L16.4558 7.74801ZM20.6077 7.74801L19.5191 9.25981H16.6488C16.6488 9.25981 17.7366 7.7476 17.7378 7.7476H20.6081L20.6077 7.74801ZM21.5415 7.74801C21.5415 7.74801 21.3316 8.041 21.23 8.18154C20.8694 8.67958 21.188 9.25981 22.3646 9.25981H26.9742L28.0632 7.7476L21.5415 7.74801Z" fill="#D40511"/>
<path d="M6.36256 4.73999L5.36328 6.12728H10.8099C11.0853 6.12728 11.0816 6.23412 10.947 6.42068C10.8103 6.60971 10.5815 6.93845 10.4424 7.13035C10.3716 7.22774 10.244 7.40568 10.6671 7.40568H12.8945C12.8945 7.40568 13.2534 6.9064 13.5542 6.48931C13.9637 5.92141 13.59 4.73999 12.1261 4.73999H6.36256ZM20.8533 7.40568H13.8304L15.7508 4.73999H18.621L17.5205 6.26864H18.8017L19.903 4.73999H22.7729L20.8533 7.40568ZM26.7482 4.73999L24.8282 7.40568H21.7868C21.7868 7.40568 23.7067 4.73999 23.7079 4.73999H26.7482Z" fill="#D40511"/>
</g>
</g>
<defs>
<clipPath id="clip0_238_2742">
<rect width="33.0016" height="12.3597" fill="white" transform="translate(0 0.82019)"/>
</clipPath>
</defs>
</svg>
