<svg width="38" height="24" viewBox="0 0 38 24" fill="none" xmlns="http://www.w3.org/2000/svg">
<g clip-path="url(#clip0_403_26)">
<g clip-path="url(#clip1_403_26)">
<path opacity="0.07" d="M35 0H3C1.3 0 0 1.3 0 3V21C0 22.7 1.4 24 3 24H35C36.7 24 38 22.7 38 21V3C38 1.3 36.6 0 35 0Z" fill="black"/>
<path d="M35 1C36.1 1 37 1.9 37 3V21C37 22.1 36.1 23 35 23H3C1.9 23 1 22.1 1 21V3C1 1.9 1.9 1 3 1H35Z" fill="white"/>
<path d="M32.2304 13.2402C31.8074 13.2402 31.4609 13.5822 31.4609 14.0097C31.4609 14.4327 31.8029 14.7791 32.2304 14.7791C32.6534 14.7791 32.9998 14.4372 32.9998 14.0097C32.9998 13.5867 32.6579 13.2402 32.2304 13.2402Z" fill="black"/>
<path d="M29.7029 10.8648V10.6038H30.9268V14.6941H29.7029V14.4331C29.3564 14.6671 28.938 14.8066 28.488 14.8066C27.2956 14.8066 26.3281 13.8391 26.3281 12.6467C26.3281 11.4543 27.2956 10.4868 28.488 10.4868C28.9425 10.4868 29.3564 10.6263 29.7029 10.8648ZM28.5915 13.6996C29.2035 13.6996 29.7029 13.2272 29.7029 12.6467C29.7029 12.0662 29.208 11.5938 28.5915 11.5938C27.9795 11.5938 27.4801 12.0662 27.4801 12.6467C27.4801 13.2272 27.9795 13.6996 28.5915 13.6996Z" fill="black"/>
<path d="M24.159 10.4912C23.6686 10.4912 23.2051 10.6442 22.8991 11.0627V10.6037H21.6797V14.694H22.9126V12.5431C22.9126 11.9221 23.3311 11.6161 23.8306 11.6161C24.3705 11.6161 24.6765 11.9356 24.6765 12.5341V14.694H25.9004V12.0931C25.9049 11.1392 25.149 10.4912 24.159 10.4912Z" fill="black"/>
<path d="M19.9039 11.1345V10.6035H18.6484V14.6938H19.9039V12.7814C19.9039 12.1379 20.6013 11.7914 21.0873 11.7914C21.0918 11.7914 21.0963 11.7914 21.1008 11.7914V10.6035C20.6103 10.6035 20.1513 10.815 19.9039 11.1345Z" fill="black"/>
<path d="M16.785 10.8648V10.6038H18.0089V14.6941H16.785V14.4331C16.4385 14.6671 16.02 14.8066 15.57 14.8066C14.3776 14.8066 13.4102 13.8391 13.4102 12.6467C13.4102 11.4543 14.3776 10.4868 15.57 10.4868C16.0245 10.4868 16.4385 10.6263 16.785 10.8648ZM15.6735 13.6996C16.2855 13.6996 16.785 13.2272 16.785 12.6467C16.785 12.0662 16.29 11.5938 15.6735 11.5938C15.0616 11.5938 14.5621 12.0662 14.5621 12.6467C14.5621 13.2272 15.0616 13.6996 15.6735 13.6996Z" fill="black"/>
<path d="M11.625 14.6939H12.9074V8.78125H11.625V14.6939Z" fill="black"/>
<path d="M10.7497 8.77686H9.42232C9.42232 9.86579 8.92285 10.8647 8.04991 11.5172L7.52344 11.9132L9.56182 14.694H11.2402L9.36383 12.1337C10.2503 11.2517 10.7497 10.0593 10.7497 8.77686Z" fill="black"/>
<path d="M6 14.694H7.35892V8.77686H6V14.694Z" fill="black"/>
</g>
</g>
<defs>
<clipPath id="clip0_403_26">
<rect width="38" height="24" fill="white"/>
</clipPath>
<clipPath id="clip1_403_26">
<rect width="38" height="24" fill="white"/>
</clipPath>
</defs>
</svg>
