<svg width="21" height="20" viewBox="0 0 21 20" fill="none" xmlns="http://www.w3.org/2000/svg">
<path d="M7.77575 18.0367C8.22576 18.0367 8.59057 17.6719 8.59057 17.2219C8.59057 16.7719 8.22576 16.4071 7.77575 16.4071C7.32574 16.4071 6.96094 16.7719 6.96094 17.2219C6.96094 17.6719 7.32574 18.0367 7.77575 18.0367Z" stroke="black" stroke-width="1.77778" stroke-linecap="round" stroke-linejoin="round"/>
<path d="M16.7445 18.0367C17.1945 18.0367 17.5593 17.6719 17.5593 17.2219C17.5593 16.7719 17.1945 16.4071 16.7445 16.4071C16.2945 16.4071 15.9297 16.7719 15.9297 17.2219C15.9297 17.6719 16.2945 18.0367 16.7445 18.0367Z" stroke="black" stroke-width="1.77778" stroke-linecap="round" stroke-linejoin="round"/>
<path d="M1.25781 0.926147H4.51707L6.70078 11.8365C6.77529 12.2117 6.97937 12.5486 7.27729 12.7885C7.57522 13.0283 7.94801 13.1557 8.33041 13.1484H16.2504C16.6328 13.1557 17.0056 13.0283 17.3035 12.7885C17.6014 12.5486 17.8055 12.2117 17.88 11.8365L19.1837 5.00022H5.33189" stroke="black" stroke-width="1.77778" stroke-linecap="round" stroke-linejoin="round"/>
</svg>
