<svg width="32" height="32" viewBox="0 0 32 32" fill="none" xmlns="http://www.w3.org/2000/svg">
<path d="M15.2122 3.44973H18.644C19.0766 3.44973 19.4273 3.80355 19.4273 4.23985V13.167C19.4273 15.5273 18.4686 17.676 16.9246 19.2346L16.9216 19.2375C15.5556 20.6136 13.7355 21.528 11.7178 21.7228C11.871 23.4636 12.6425 25.1061 13.8043 26.3456C15.059 27.6836 16.7703 28.5484 18.6448 28.5484C20.5163 28.5484 22.2264 27.6836 23.4811 26.3452C24.7869 24.9557 25.5991 23.0594 25.5991 21.0861V13.3018C24.9963 13.154 24.4561 12.8405 24.0299 12.4112L24.0269 12.4083C23.423 11.7969 23.0504 10.9587 23.0504 10.0357C23.0504 9.11156 23.4242 8.2718 24.0269 7.6627L24.0299 7.65971C24.6359 7.05061 25.467 6.67477 26.3824 6.67477C27.2985 6.67477 28.131 7.05173 28.7349 7.65971L28.7378 7.6627C29.3413 8.27367 29.7143 9.11231 29.7143 10.0357C29.7143 10.9594 29.341 11.7988 28.7378 12.4083L28.7349 12.4112C28.3075 12.8408 27.7681 13.1547 27.1657 13.3021V21.0861C27.1657 23.4639 26.1877 25.7488 24.6178 27.4239C23.0797 29.0676 20.9684 30.1286 18.6448 30.1286C16.3222 30.1286 14.2117 29.0676 12.6721 27.4257C11.2435 25.9022 10.3048 23.8726 10.1468 21.7277C8.10398 21.5437 6.26319 20.6252 4.8875 19.2375C3.34383 17.6804 2.38477 15.531 2.38477 13.167V4.23985C2.38477 3.80355 2.73553 3.44973 3.16807 3.44973H6.60027V2.4786C6.60027 2.04229 6.95103 1.68848 7.38357 1.68848C7.81611 1.68848 8.16688 2.04229 8.16688 2.4786V6.0011C8.16688 6.4374 7.81611 6.79122 7.38357 6.79122C6.95103 6.79122 6.60027 6.4374 6.60027 6.0011V5.02996H3.95138V13.167C3.95138 15.0955 4.73432 16.8496 5.99456 18.1208C7.25518 19.3924 8.99422 20.1818 10.9064 20.1818C12.8205 20.1818 14.5591 19.3935 15.8175 18.1238L15.8205 18.1208C17.0793 16.8515 17.8607 15.0977 17.8607 13.167V5.02996H15.2122V6.0011C15.2122 6.4374 14.8614 6.79122 14.4289 6.79122C13.9964 6.79122 13.6456 6.4374 13.6456 6.0011V2.4786C13.6456 2.04229 13.9964 1.68848 14.4289 1.68848C14.8614 1.68848 15.2122 2.04229 15.2122 2.4786V3.44973ZM27.6308 8.77342C27.3137 8.45319 26.8723 8.25501 26.3824 8.25501C25.8925 8.25501 25.4511 8.45319 25.134 8.77342L25.131 8.7764C24.8135 9.09626 24.6171 9.54151 24.6171 10.0357C24.6171 10.5294 24.8135 10.9747 25.131 11.2946L25.134 11.2975C25.4511 11.6178 25.8925 11.816 26.3824 11.816C26.8723 11.816 27.3137 11.6178 27.6308 11.2975L27.6337 11.2946C27.9512 10.9747 28.1477 10.5294 28.1477 10.0357C28.1477 9.54151 27.9512 9.09626 27.6337 8.7764L27.6308 8.77342Z" fill="#D0E6D0"/>
</svg>
