<svg width="32" height="32" viewBox="0 0 32 32" fill="none" xmlns="http://www.w3.org/2000/svg">
<g clip-path="url(#clip0_1477_3025)">
<circle cx="16" cy="16" r="15" stroke="#D0E6D0" stroke-width="2"/>
<path d="M12.25 7.4V11.85C12.25 12.0709 12.0709 12.25 11.85 12.25H7.4C7.17909 12.25 7 12.4291 7 12.65V19.35C7 19.5709 7.17909 19.75 7.4 19.75H11.85C12.0709 19.75 12.25 19.9291 12.25 20.15V24.6C12.25 24.8209 12.4291 25 12.65 25H19.35C19.5709 25 19.75 24.8209 19.75 24.6V20.15C19.75 19.9291 19.9291 19.75 20.15 19.75H24.6C24.8209 19.75 25 19.5709 25 19.35V12.65C25 12.4291 24.8209 12.25 24.6 12.25H20.15C19.9291 12.25 19.75 12.0709 19.75 11.85V7.4C19.75 7.17909 19.5709 7 19.35 7H12.65C12.4291 7 12.25 7.17909 12.25 7.4Z" stroke="#D0E6D0" stroke-width="2"/>
</g>
<defs>
<clipPath id="clip0_1477_3025">
<rect width="32" height="32" fill="white"/>
</clipPath>
</defs>
</svg>
