<svg width="32" height="32" viewBox="0 0 32 32" fill="none" xmlns="http://www.w3.org/2000/svg">
<g clip-path="url(#clip0_1477_3029)">
<path d="M0.655513 32.7498C0.701706 32.7543 0.747902 32.7543 0.794094 32.7498C1.18449 32.7558 1.52126 32.4765 1.58832 32.0892C1.98471 29.8329 2.6508 27.6335 3.57614 25.5394C19.9124 24.8503 25.7924 17.2813 27.852 11.0481H27.8505C27.922 10.8199 27.8892 10.5722 27.7596 10.3711C27.6314 10.1699 27.4198 10.0378 27.1829 10.0108C26.2933 9.90721 25.4469 9.83816 24.7152 9.79913C25.7687 9.28872 26.8744 8.89688 28.0144 8.6342C28.3198 8.55764 28.5523 8.30693 28.6059 7.99317C29.0396 5.5657 29.0664 3.08128 28.6849 0.6432C28.6059 0.240864 28.2364 -0.0353412 27.8311 0.0036665C16.8519 1.06052 9.25065 4.57506 5.25701 10.455C1.56595 15.8954 2.07857 21.7008 2.50323 23.9782C1.32455 26.4687 0.485575 29.108 0.0117472 31.8251C-0.0627584 32.2589 0.224864 32.6732 0.655513 32.7498ZM6.58323 11.3409C10.2117 6.01626 17.1497 2.76882 27.2186 1.67315C27.4183 3.51665 27.3826 5.37815 27.1114 7.21262C24.5767 7.89716 22.7885 8.84145 21.7826 10.0154C21.5784 10.2541 21.5322 10.5904 21.6633 10.8756C21.8034 11.1654 22.0955 11.3455 22.4144 11.341C22.4144 11.341 24.0312 11.341 25.9907 11.4971C23.8494 16.942 18.3136 23.106 4.33446 23.9077C8.9644 14.7472 17.0944 9.40299 17.1974 9.33535C17.5699 9.09666 17.6802 8.59824 17.4432 8.22146C17.2063 7.84616 16.7116 7.73507 16.3391 7.97376C11.2533 11.4896 6.98838 16.0789 3.83818 21.4201C3.64893 17.8502 4.61177 14.3136 6.58323 11.3409Z" fill="#D0E6D0"/>
</g>
<defs>
<clipPath id="clip0_1477_3029">
<rect width="32" height="32" fill="white"/>
</clipPath>
</defs>
</svg>
