<svg width="32" height="32" viewBox="0 0 32 32" fill="none" xmlns="http://www.w3.org/2000/svg">
<path d="M21.3585 0.761719H10.6415C9.43602 0.762568 8.28016 1.22825 7.42776 2.0565C6.57535 2.88474 6.09609 4.00784 6.09521 5.17916V26.8205C6.09609 27.9918 6.57535 29.1149 7.42776 29.9431C8.28016 30.7714 9.43602 31.2371 10.6415 31.2379H21.3585C22.5639 31.2371 23.7198 30.7714 24.5722 29.9431C25.4246 29.1149 25.9039 27.9918 25.9047 26.8205V5.17916C25.9039 4.00784 25.4246 2.88474 24.5722 2.0565C23.7198 1.22825 22.5639 0.762568 21.3585 0.761719ZM24.2539 26.8205C24.2522 27.5661 23.9466 28.2807 23.4039 28.808C22.8613 29.3352 22.1259 29.6322 21.3585 29.6339H10.6415C9.8741 29.6322 9.13864 29.3352 8.59601 28.808C8.05337 28.2807 7.74775 27.5661 7.74601 26.8205V5.17916C7.74775 4.43351 8.05337 3.71889 8.59601 3.19164C9.13864 2.66438 9.8741 2.36742 10.6415 2.36573H21.3585C22.1259 2.36742 22.8613 2.66438 23.4039 3.19164C23.9466 3.71889 24.2522 4.43351 24.2539 5.17916V26.8205Z" fill="#D0E6D0"/>
<path d="M19.0158 25.9043H12.9841C12.7736 25.9043 12.5717 25.9846 12.4229 26.1275C12.274 26.2703 12.1904 26.4641 12.1904 26.6662C12.1904 26.8683 12.274 27.0621 12.4229 27.205C12.5717 27.3478 12.7736 27.4281 12.9841 27.4281H19.0158C19.2263 27.4281 19.4282 27.3478 19.577 27.205C19.7259 27.0621 19.8095 26.8683 19.8095 26.6662C19.8095 26.4641 19.7259 26.2703 19.577 26.1275C19.4282 25.9846 19.2263 25.9043 19.0158 25.9043Z" fill="#D0E6D0"/>
</svg>
