<svg width="78" height="20" viewBox="0 0 78 20" fill="none" xmlns="http://www.w3.org/2000/svg">
<g clip-path="url(#clip0_238_2433)">
<path d="M20.4991 6.78918H28.3968V8.2627H25.2914V16.5461H23.5838V8.2627H20.4922V6.78918H20.4991ZM28.0595 9.48145H29.5192V10.8448H29.5467C29.5949 10.652 29.6845 10.4661 29.8153 10.2871C29.9461 10.108 30.1045 9.9359 30.2904 9.7913C30.4763 9.63982 30.6829 9.52276 30.9101 9.42637C31.1373 9.33685 31.3714 9.28865 31.6055 9.28865C31.7846 9.28865 31.9154 9.29554 31.9842 9.30243C32.0531 9.30931 32.122 9.32308 32.1977 9.32997V10.831C32.0875 10.8104 31.9774 10.7966 31.8603 10.7828C31.7432 10.7691 31.6331 10.7622 31.5229 10.7622C31.2613 10.7622 31.0134 10.8173 30.7793 10.9205C30.5452 11.0238 30.3455 11.1822 30.1733 11.3819C30.0012 11.5884 29.8635 11.8363 29.7602 12.1393C29.6569 12.4423 29.6087 12.7865 29.6087 13.179V16.5392H28.0526V9.48145H28.0595ZM39.3518 16.5461H37.8232V15.5614H37.7957C37.6029 15.9195 37.3206 16.2018 36.9419 16.4152C36.5632 16.6287 36.1776 16.7389 35.7851 16.7389C34.8555 16.7389 34.1807 16.5116 33.7676 16.0503C33.3545 15.589 33.1479 14.8935 33.1479 13.964V9.48145H34.7041V13.8125C34.7041 14.4322 34.8211 14.8729 35.0621 15.1276C35.2962 15.3824 35.6336 15.5132 36.0605 15.5132C36.391 15.5132 36.6596 15.465 36.8799 15.3617C37.1002 15.2585 37.2793 15.1276 37.4101 14.9555C37.5478 14.7902 37.6442 14.5837 37.7062 14.3496C37.7681 14.1155 37.7957 13.8607 37.7957 13.5853V9.48834H39.3518V16.5461ZM42.0028 14.2807C42.051 14.7352 42.2231 15.0519 42.5192 15.2378C42.8222 15.4168 43.1802 15.5132 43.6002 15.5132C43.7448 15.5132 43.9101 15.4995 44.096 15.4788C44.2819 15.4581 44.4609 15.4099 44.6193 15.348C44.7846 15.286 44.9154 15.1896 45.0256 15.0657C45.1288 14.9417 45.177 14.7834 45.1702 14.5837C45.1633 14.384 45.0875 14.2187 44.9498 14.0948C44.8121 13.964 44.64 13.8676 44.4265 13.7849C44.2131 13.7092 43.9721 13.6404 43.6966 13.5853C43.4212 13.5302 43.1458 13.4682 42.8635 13.4062C42.5743 13.3443 42.292 13.2616 42.0234 13.1721C41.7549 13.0826 41.5139 12.9587 41.3004 12.8003C41.087 12.6488 40.9149 12.4491 40.7909 12.2081C40.6601 11.9672 40.5981 11.6711 40.5981 11.313C40.5981 10.9274 40.6945 10.6107 40.8804 10.349C41.0663 10.0874 41.3073 9.88082 41.5896 9.72245C41.8788 9.56408 42.1956 9.45391 42.5467 9.38505C42.8979 9.32308 43.2353 9.28865 43.552 9.28865C43.917 9.28865 44.2681 9.32997 44.5986 9.40571C44.9292 9.48145 45.2321 9.60539 45.5007 9.78442C45.7692 9.95656 45.9895 10.1838 46.1686 10.4592C46.3476 10.7346 46.4578 11.072 46.506 11.4645H44.881C44.8052 11.0927 44.64 10.8379 44.3714 10.714C44.1029 10.5831 43.793 10.5212 43.4488 10.5212C43.3386 10.5212 43.2078 10.5281 43.0563 10.5487C42.9048 10.5694 42.7671 10.6038 42.6294 10.652C42.4985 10.7002 42.3884 10.7759 42.292 10.8723C42.2025 10.9687 42.1543 11.0927 42.1543 11.251C42.1543 11.4438 42.2231 11.5953 42.3539 11.7124C42.4848 11.8294 42.6569 11.9258 42.8704 12.0085C43.0838 12.0842 43.3248 12.1531 43.6002 12.2081C43.8757 12.2632 44.158 12.3252 44.4472 12.3872C44.7295 12.4491 45.0049 12.5318 45.2803 12.6213C45.5557 12.7108 45.7967 12.8347 46.0102 12.9931C46.2236 13.1515 46.3958 13.3443 46.5266 13.5784C46.6574 13.8125 46.7263 14.1086 46.7263 14.4528C46.7263 14.8729 46.6299 15.224 46.4371 15.5201C46.2443 15.8093 45.9964 16.0503 45.6935 16.2293C45.3905 16.4084 45.0462 16.5461 44.6744 16.6287C44.3026 16.7113 43.9307 16.7526 43.5658 16.7526C43.1182 16.7526 42.7051 16.7044 42.3264 16.6012C41.9477 16.4979 41.6172 16.3464 41.3418 16.1467C41.0663 15.9401 40.846 15.6854 40.6876 15.3824C40.5293 15.0794 40.4466 14.7145 40.4329 14.2945H42.0028V14.2807ZM47.1394 9.48145H48.3169V7.36069H49.873V9.48145H51.2777V10.6451H49.873V14.4184C49.873 14.5837 49.8799 14.7214 49.8937 14.8453C49.9074 14.9624 49.9419 15.0657 49.9901 15.1483C50.0383 15.2309 50.114 15.2929 50.2173 15.3342C50.3206 15.3755 50.4514 15.3962 50.6304 15.3962C50.7406 15.3962 50.8508 15.3962 50.9609 15.3893C51.0711 15.3824 51.1813 15.3686 51.2914 15.3411V16.5461C51.1193 16.5667 50.9472 16.5805 50.7888 16.6012C50.6235 16.6218 50.4583 16.6287 50.2861 16.6287C49.873 16.6287 49.5425 16.5874 49.2946 16.5116C49.0467 16.4359 48.8471 16.3188 48.7094 16.1674C48.5648 16.0159 48.4752 15.83 48.4202 15.6027C48.372 15.3755 48.3375 15.1139 48.3306 14.8247V10.6589H47.1532V9.48145H47.1394ZM52.3794 9.48145H53.8529V10.4385H53.8804C54.1008 10.0254 54.4037 9.73622 54.7962 9.55719C55.1887 9.37817 55.6087 9.28865 56.07 9.28865C56.6278 9.28865 57.1098 9.38505 57.5229 9.58474C57.936 9.77753 58.2803 10.0461 58.5558 10.3903C58.8312 10.7346 59.0308 11.134 59.1686 11.5884C59.3063 12.0429 59.3751 12.5318 59.3751 13.0482C59.3751 13.5233 59.3132 13.9846 59.1892 14.4253C59.0653 14.8729 58.8794 15.2654 58.6315 15.6096C58.3836 15.9539 58.0669 16.2224 57.6813 16.429C57.2957 16.6356 56.8481 16.7389 56.3248 16.7389C56.0976 16.7389 55.8704 16.7182 55.6431 16.6769C55.4159 16.6356 55.1956 16.5667 54.989 16.4772C54.7824 16.3877 54.5828 16.2706 54.4106 16.126C54.2316 15.9815 54.087 15.8162 53.9631 15.6303H53.9355V19.1557H52.3794V9.48145ZM57.819 13.0206C57.819 12.7039 57.7777 12.3941 57.6951 12.0911C57.6124 11.7881 57.4885 11.5265 57.3232 11.2924C57.158 11.0583 56.9514 10.8723 56.7104 10.7346C56.4625 10.5969 56.1802 10.5212 55.8635 10.5212C55.2093 10.5212 54.7136 10.7484 54.3831 11.2028C54.0526 11.6573 53.8873 12.2632 53.8873 13.0206C53.8873 13.3787 53.9286 13.7092 54.0181 14.0122C54.1077 14.3151 54.2316 14.5768 54.4106 14.7971C54.5828 15.0175 54.7893 15.1896 55.0303 15.3135C55.2713 15.4444 55.5536 15.5063 55.8704 15.5063C56.2284 15.5063 56.5245 15.4306 56.7724 15.286C57.0203 15.1414 57.2199 14.9486 57.3783 14.7214C57.5367 14.4873 57.6537 14.2256 57.7226 13.9295C57.7846 13.6335 57.819 13.3305 57.819 13.0206ZM60.5663 6.78918H62.1225V8.2627H60.5663V6.78918ZM60.5663 9.48145H62.1225V16.5461H60.5663V9.48145ZM63.5134 6.78918H65.0695V16.5461H63.5134V6.78918ZM69.8412 16.7389C69.2766 16.7389 68.774 16.6425 68.3333 16.4566C67.8926 16.2706 67.5208 16.009 67.2109 15.6854C66.908 15.3549 66.6739 14.9624 66.5155 14.5079C66.3571 14.0535 66.2745 13.5508 66.2745 13.0069C66.2745 12.4698 66.3571 11.974 66.5155 11.5196C66.6739 11.0651 66.908 10.6727 67.2109 10.3422C67.5139 10.0116 67.8926 9.75688 68.3333 9.57096C68.774 9.38505 69.2766 9.28865 69.8412 9.28865C70.4058 9.28865 70.9085 9.38505 71.3492 9.57096C71.7899 9.75688 72.1617 10.0185 72.4715 10.3422C72.7745 10.6727 73.0086 11.0651 73.167 11.5196C73.3253 11.974 73.408 12.4698 73.408 13.0069C73.408 13.5508 73.3253 14.0535 73.167 14.5079C73.0086 14.9624 72.7745 15.3549 72.4715 15.6854C72.1686 16.0159 71.7899 16.2706 71.3492 16.4566C70.9085 16.6425 70.4058 16.7389 69.8412 16.7389ZM69.8412 15.5063C70.1855 15.5063 70.4885 15.4306 70.7433 15.286C70.998 15.1414 71.2046 14.9486 71.3698 14.7145C71.5351 14.4804 71.6522 14.2119 71.7348 13.9158C71.8105 13.6197 71.8518 13.3167 71.8518 13.0069C71.8518 12.7039 71.8105 12.4078 71.7348 12.1049C71.659 11.8019 71.5351 11.5402 71.3698 11.3061C71.2046 11.072 70.998 10.8861 70.7433 10.7415C70.4885 10.5969 70.1855 10.5212 69.8412 10.5212C69.497 10.5212 69.194 10.5969 68.9392 10.7415C68.6845 10.8861 68.4779 11.0789 68.3126 11.3061C68.1474 11.5402 68.0303 11.8019 67.9477 12.1049C67.872 12.4078 67.8306 12.7039 67.8306 13.0069C67.8306 13.3167 67.872 13.6197 67.9477 13.9158C68.0234 14.2119 68.1474 14.4804 68.3126 14.7145C68.4779 14.9486 68.6845 15.1414 68.9392 15.286C69.194 15.4375 69.497 15.5063 69.8412 15.5063ZM73.8624 9.48145H75.0399V7.36069H76.596V9.48145H78.0007V10.6451H76.596V14.4184C76.596 14.5837 76.6029 14.7214 76.6167 14.8453C76.6304 14.9624 76.6649 15.0657 76.7131 15.1483C76.7613 15.2309 76.837 15.2929 76.9403 15.3342C77.0436 15.3755 77.1744 15.3962 77.3534 15.3962C77.4636 15.3962 77.5738 15.3962 77.6839 15.3893C77.7941 15.3824 77.9043 15.3686 78.0144 15.3411V16.5461C77.8423 16.5667 77.6702 16.5805 77.5118 16.6012C77.3465 16.6218 77.1813 16.6287 77.0091 16.6287C76.596 16.6287 76.2655 16.5874 76.0176 16.5116C75.7697 16.4359 75.57 16.3188 75.4323 16.1674C75.2877 16.0159 75.1982 15.83 75.1431 15.6027C75.0949 15.3755 75.0605 15.1139 75.0536 14.8247V10.6589H73.8762V9.48145H73.8624Z" fill="#191919"/>
<path d="M18.6806 6.78919H11.5471L9.34375 0L7.13347 6.78919L0 6.78231L5.77701 10.9825L3.56674 17.7648L9.34375 13.5715L15.1139 17.7648L12.9105 10.9825L18.6806 6.78919Z" fill="#00B67A"/>
<path d="M13.4062 12.518L12.9105 10.9825L9.34375 13.5715L13.4062 12.518Z" fill="#005128"/>
</g>
<defs>
<clipPath id="clip0_238_2433">
<rect width="78" height="19.1557" fill="white"/>
</clipPath>
</defs>
</svg>
