<svg width="74" height="76" viewBox="0 0 74 76" fill="none" xmlns="http://www.w3.org/2000/svg">
<path fill-rule="evenodd" clip-rule="evenodd" d="M58.8655 41.5397C57.1281 42.1725 56.6455 44.3999 57.9689 45.6779C59.576 47.2304 62.1639 46.0388 62.0821 43.7839C62.0224 42.1406 60.3736 40.9902 58.8655 41.5397ZM60.4075 41.8454C62.0515 42.4816 62.3029 44.7493 60.8359 45.7094C59.3815 46.6613 57.5283 45.6417 57.5283 43.8896C57.5283 42.3572 59.0105 41.305 60.4075 41.8454ZM58.8058 43.8367V45.1832H58.9883H59.1708V44.5761V43.9687H59.5329C60.0316 43.9687 60.1474 44.0707 60.2169 44.5701C60.302 45.1827 60.3024 45.1832 60.5308 45.1832C60.7215 45.1832 60.73 45.1765 60.6856 45.058C60.6596 44.989 60.6108 44.7414 60.5771 44.5076C60.5184 44.1014 60.4018 43.8632 60.2617 43.8632C60.2328 43.8632 60.3041 43.7717 60.4201 43.6602C60.6123 43.475 60.6308 43.4335 60.6308 43.1889C60.6308 42.6558 60.3289 42.4902 59.3563 42.4902H58.8058V43.8367ZM60.031 42.8828C60.5821 43.116 60.247 43.6497 59.5488 43.6512L59.1708 43.6519V43.2296V42.807H59.5114C59.6987 42.807 59.9325 42.8412 60.031 42.8828ZM16.2038 45.6849V46.1865H16.6211H17.0381V45.6849V45.1832H16.6211H16.2038V45.6849ZM17.6118 45.6849V46.1865H18.0289H18.4461V45.6849V45.1832H18.0289H17.6118V45.6849ZM8.85156 47.5319V48.0322L9.75102 48.0466L10.6505 48.061L10.664 50.6089L10.6775 53.1566H11.3289H11.9801V50.5956V48.0346H12.8666H13.7531V47.533V47.0314H11.3023H8.85156V47.5319ZM14.7035 49.2096C14.725 51.6713 14.7429 51.798 15.1487 52.3373C16.0054 53.4763 18.2427 53.5987 19.2923 52.5639C19.882 51.9826 19.9559 51.5837 19.9572 48.9719L19.9583 47.0314H19.311H18.6638L18.6436 49.1567C18.6166 52.0229 18.4961 52.3125 17.3316 52.3116C16.1368 52.3105 15.9963 51.9566 15.9958 48.9455L15.9952 47.0314H15.3399H14.6844L14.7035 49.2096ZM20.9101 47.1238C20.924 47.1746 21.3988 48.4875 21.9653 50.0413L23.0465 53.0129L23.0982 53.1596L23.8088 53.145L24.5195 53.1302L25.4711 50.5165L26.5788 47.467L26.7351 47.0314H26.0966H25.4582L24.6774 49.4075L23.8668 51.7837C23.8505 51.7837 23.4893 50.7145 23.0643 49.4075L22.2914 47.0314H21.5882C20.9433 47.0314 20.8868 47.039 20.9101 47.1238ZM27.832 50.094V53.1566H28.2493H28.6663V51.7837V50.4108H29.4712C30.7246 50.4108 30.9271 50.5713 31.0373 51.6518C31.055 51.8261 31.118 52.2359 31.1772 52.5626L31.2849 53.1566H31.7431H32.2012L32.0998 52.8267C32.0439 52.6451 31.9401 52.1165 31.8692 51.6518C31.7075 50.5951 31.6174 50.3891 31.229 50.189L30.9521 50.0464L31.1435 49.9652C32.2779 49.4853 32.3491 47.8354 31.2587 47.2992C30.8068 47.0771 30.4358 47.0323 29.0443 47.0317L27.832 47.0314V50.094ZM33.4115 50.094V53.1566H33.8026H34.1936V51.7933C34.1936 49.8231 34.3919 49.4075 35.3315 49.4075C36.0827 49.4075 36.2272 49.7969 36.2272 51.8175V53.1566H36.6184H37.0095V51.6015C37.0095 49.8777 36.9784 49.6201 36.7306 49.2864C36.2509 48.641 35.0653 48.5902 34.452 49.1888L34.1936 49.4409V48.2361V47.0314H33.8026H33.4115V50.094ZM50.0977 50.094V53.1566H50.5148H50.932V50.094V47.0314H50.5148H50.0977V50.094ZM64.6981 48.2626V49.4409L64.4474 49.1965C63.8978 48.66 62.8312 48.6637 62.2246 49.2045C61.1265 50.1832 61.3266 52.6198 62.5483 53.1452C63.2531 53.4483 64.1299 53.2689 64.5281 52.7405L64.6981 52.5148V52.8357V53.1566H65.1225H65.547L65.514 52.8794C65.4959 52.727 65.4809 51.3606 65.4807 49.8432L65.4802 47.0842H65.0892H64.6981V48.2626ZM42.8863 47.276C42.8661 47.2962 42.8496 47.4992 42.8496 47.7266V48.1403H43.347H43.8446L43.8294 47.7047L43.8143 47.269L43.3685 47.2539C43.1234 47.2456 42.9065 47.2556 42.8863 47.276ZM30.6974 47.9291C31.3203 48.2836 31.3081 49.1803 30.6757 49.5099C30.4384 49.6336 30.3573 49.6445 29.5432 49.6634L28.6663 49.6838V48.722V47.7602L29.5658 47.7787C30.411 47.796 30.4793 47.8052 30.6974 47.9291ZM39.423 48.847C37.6215 49.4452 37.5525 52.6621 39.3299 53.1853C40.3371 53.4819 41.3956 53.0502 41.7034 52.2175C41.8473 51.8285 41.8539 51.8366 41.3935 51.8366H40.9806L40.9171 52.0345C40.5309 53.2404 38.7907 52.6734 38.8964 51.3762L38.9127 51.1766L40.3934 51.1625L41.8741 51.1484L41.845 50.6609C41.7917 49.7676 41.4082 49.132 40.7895 48.9108C40.4415 48.7863 39.7087 48.7522 39.423 48.847ZM46.8125 48.8199C46.5337 48.9134 46.2483 49.0926 46.0934 49.2713L45.9316 49.458L45.9158 49.1818L45.9001 48.9059L45.5219 48.8904L45.1439 48.875V51.0157V53.1566H45.5351H45.9262V51.7933C45.9262 50.7465 45.944 50.3692 46.0028 50.1682C46.2431 49.3492 47.3347 49.125 47.8245 49.7943C47.9287 49.9365 47.9343 50.0151 47.9489 51.55L47.9641 53.1566H48.3791H48.7941V51.6279C48.7941 49.9272 48.7627 49.6709 48.5133 49.3399C48.1962 48.9188 47.3181 48.6504 46.8125 48.8199ZM53.2637 48.8281C52.6985 48.973 52.3579 49.3183 52.2602 49.8456L52.2239 50.0413L52.6339 50.0393L53.0438 50.0374L53.1482 49.8177C53.5306 49.0116 54.6629 49.2495 54.7266 50.1491L54.7514 50.501L54.0541 50.531C52.6421 50.5913 52.0145 51.0474 52.0073 52.018C51.9981 53.2519 53.8527 53.7713 54.6194 52.7497L54.7646 52.5562L54.7907 52.8432L54.8168 53.1302L55.1883 53.1456L55.56 53.1611L55.5356 51.5087C55.5085 49.6797 55.49 49.5433 55.2307 49.2525C54.8873 48.8677 53.9219 48.6594 53.2637 48.8281ZM58.5832 48.8298C58.2275 48.9175 57.9255 49.1089 57.7225 49.3751L57.6064 49.5275V49.2298V48.9323H57.2153H56.8243V51.0446V53.1566H57.211H57.5977L57.6164 51.7177C57.6395 49.9382 57.6775 49.8089 58.2582 49.5326C58.8853 49.2343 59.4999 49.5078 59.6349 50.1454C59.6682 50.3028 59.6923 50.9893 59.6923 51.7863V53.1566H60.086H60.4797L60.464 51.4785L60.4482 49.8004L60.3157 49.538C60.0499 49.0118 59.2208 48.6727 58.5832 48.8298ZM42.9539 51.0182V53.1566H43.345H43.7361V51.0182V48.8795H43.345H42.9539V51.0182ZM40.3632 49.4313C40.7301 49.5637 40.9387 49.8638 41.0024 50.3504L41.0379 50.6221H39.9623C39.3171 50.6221 38.8866 50.602 38.8866 50.5718C38.8866 49.7373 39.6268 49.1653 40.3632 49.4313ZM63.9045 49.4366C65.1525 49.9637 64.8789 52.7358 63.5789 52.7339C62.771 52.7328 62.3773 52.1703 62.378 51.0182C62.3788 49.7236 63.0174 49.0621 63.9045 49.4366ZM54.7262 51.4699C54.6467 52.5956 53.439 53.1664 52.9438 52.3123C52.5482 51.6298 53.0971 51.1044 54.2111 51.0997L54.7525 51.0973L54.7262 51.4699Z" fill="#686667" fill-opacity="0.867"/>
<path fill-rule="evenodd" clip-rule="evenodd" d="M8.88372 0.954886C4.13652 1.65597 0.646042 5.25661 0.05757 10.0594C-0.0190665 10.6849 -0.0192516 65.7764 0.0573849 66.4044C0.637897 71.1601 4.22019 74.9109 8.8578 75.6187C9.62861 75.7365 65.7046 75.7359 65.7046 75.6184C65.7046 75.5752 65.7691 75.5267 65.8479 75.5102C66.1232 75.4457 66.397 75.3751 66.6693 75.2984C66.698 75.2896 66.6744 75.2794 66.6171 75.2757C66.5597 75.2719 66.7241 75.191 66.9821 75.0957C70.3182 73.8657 73.004 70.7488 73.631 67.3799C73.6621 67.2118 73.6973 67.0446 73.7365 66.8783C73.891 66.2649 73.8957 65.3329 73.8805 37.8887L73.7678 9.58552C72.9494 5.36927 70.5555 2.69016 66.2781 1.20383C66.1491 1.15884 65.9262 1.06567 65.7828 0.996689L65.5221 0.871094L37.4425 0.877655L8.88372 0.954886ZM64.6338 5.68963C68.4399 6.66215 69.112 10.2 69.2684 10.9748C69.3456 11.6946 69.3454 65.0406 69.2682 65.7582L64.5884 70.9269L64.109 71.0426L37.2077 71.0585C17.8946 71.0698 9.80687 71.0578 9.49311 71.0175L4.51007 65.6859C4.39604 64.5403 4.46343 11.0456 4.57968 10.4356C5.76661 7.93366 6.74808 7.10586 9.96755 5.44351C10.1839 5.4182 22.1213 5.40058 37.1555 5.40433L63.9526 5.41089L64.6338 5.68963Z" fill="url(#paint0_linear_388_48)"/>
<path d="M4.07422 56.6998L4.1229 65.1094C4.49405 68.477 6.39238 70.6772 9.59704 71.4544C10.1637 71.5918 62.5956 71.6343 63.5228 71.498C66.5451 71.0542 68.6201 69.0369 69.307 65.8751L69.4273 65.3206V56.7732M69.0364 56.687H36.9466H4.48683M19.1075 60.9102C20.002 61.0585 20.6793 61.7043 20.7889 62.5131L20.8222 62.7596H20.1893C19.5683 62.7596 19.5566 62.7574 19.5555 62.6408C19.5476 61.8255 18.495 61.4802 17.9065 62.0998C17.2538 62.787 17.1877 64.8359 17.7944 65.581C18.3473 66.2604 19.5566 65.8839 19.5566 65.0323V64.8717H20.2116H20.8667L20.8306 65.1225C20.5385 67.1536 17.4293 67.5152 16.4882 65.6275C15.3133 63.2703 16.8331 60.533 19.1075 60.9102ZM25.7618 61.4658V61.9148H24.4843H23.2067V62.6012V63.2877H24.406H25.6054V63.7629V64.2381H24.406H23.2067V65.0038V65.7694H24.5363H25.866V66.2446V66.72H23.9368H22.0073V63.8684V61.017H23.8846H25.7618V61.4658ZM30.524 61.1231C31.7089 61.5537 31.7385 63.4112 30.5658 63.767C30.3203 63.8416 30.3261 63.895 30.5852 63.9442C31.0316 64.0291 31.1659 64.3159 31.3436 65.5625C31.4025 65.9754 31.4847 66.3959 31.5264 66.4967C31.568 66.5976 31.6019 66.6891 31.6019 66.6999C31.6019 66.7108 31.3087 66.72 30.9501 66.72C30.5915 66.72 30.2983 66.7112 30.2983 66.7003C30.2983 66.5168 30.0144 64.7579 29.9694 64.6631C29.8648 64.442 29.7015 64.3982 28.9816 64.3972L28.3169 64.3965V65.5598V66.7232L27.7042 66.7084L27.0914 66.6936L27.0779 63.8519L27.0644 61.0103L28.6945 61.0305C29.902 61.0453 30.3761 61.0695 30.524 61.1231ZM36.8685 61.4658V61.9148H36.0342H35.1999V64.3174V66.72H34.6001H34.0006V64.3174V61.9148H33.1663H32.332V61.4658V61.017H34.6001H36.8685V61.4658ZM39.0586 63.8684V66.72H38.4588H37.8592V63.8684V61.017H38.4588H39.0586V63.8684ZM44.1688 61.4658V61.9148H42.9419H41.7149L41.7294 62.6143L41.744 63.3141L42.8802 63.3284L44.0162 63.3424L44.0012 63.8036L43.9863 64.2645L42.8521 64.2788L41.7179 64.293V65.5064V66.72H41.1183H40.5185V63.8684V61.017H42.3436H44.1688V61.4658ZM46.4109 63.8684V66.72H45.8113H45.2115V63.8684V61.017H45.8113H46.4109V63.8684ZM51.6253 61.4658V61.9148H50.3478H49.0702V62.6012V63.2877H50.2716H51.4729L51.4579 63.7498L51.4428 64.2117L50.2566 64.2259L49.0702 64.2402V65.0048V65.7694H50.4019H51.7338L51.7186 66.2315L51.7036 66.6936H49.7742H47.8449L47.8314 63.8553L47.8179 61.017H49.7216H51.6253V61.4658ZM55.8184 61.1215C58.4822 61.8115 58.2984 66.2377 55.5883 66.6656C55.4019 66.6951 54.7272 66.7193 54.0891 66.7194L52.9288 66.72V63.8684V61.017H54.1721C55.24 61.017 55.4721 61.0319 55.8184 61.1215ZM28.2647 62.7118V63.5091L28.9816 63.4907C29.9322 63.4665 30.1941 63.2828 30.1941 62.6406C30.1941 62.0728 29.9327 61.9165 28.9816 61.9155L28.2647 61.9148V62.7118ZM54.1674 61.9438C54.1458 61.9665 54.1282 62.8354 54.1282 63.8744V65.7636L54.3759 65.7797C55.7163 65.8669 56.271 65.4348 56.426 64.1832C56.5552 63.139 56.1739 62.2501 55.501 62.0272C55.2657 61.9493 54.2241 61.8842 54.1674 61.9438Z" fill="#0773C7"/>
<path d="M13.209 65.9008C17.9994 65.9008 21.8828 61.9075 21.8828 56.9816C21.8828 52.0557 17.9994 48.0625 13.209 48.0625C8.41855 48.0625 4.53516 52.0557 4.53516 56.9816C4.53516 61.9075 8.41855 65.9008 13.209 65.9008Z" fill="url(#paint1_radial_388_48)"/>
<path fill-rule="evenodd" clip-rule="evenodd" d="M58.6194 41.2208C56.882 41.8537 56.3994 44.081 57.7228 45.3591C59.3299 46.9116 61.9178 45.7199 61.836 43.465C61.7763 41.8218 60.1276 40.6714 58.6194 41.2208ZM60.1614 41.5266C61.8054 42.1628 62.0568 44.4304 60.5898 45.3906C59.1354 46.3425 57.2822 45.3229 57.2822 43.5708C57.2822 42.0383 58.7644 40.9861 60.1614 41.5266ZM58.5597 43.5179V44.8644H58.7422H58.9247V44.2572V43.6499H59.2868C59.7855 43.6499 59.9013 43.7518 59.9708 44.2512C60.0559 44.8638 60.0563 44.8644 60.2847 44.8644C60.4754 44.8644 60.4839 44.8576 60.4395 44.7392C60.4136 44.6702 60.3647 44.4226 60.331 44.1888C60.2723 43.7826 60.1557 43.5443 60.0156 43.5443C59.9867 43.5443 60.058 43.4528 60.174 43.3413C60.3662 43.1561 60.3847 43.1147 60.3847 42.87C60.3847 42.3369 60.0828 42.1714 59.1102 42.1714H58.5597V43.5179ZM59.7849 42.5639C60.336 42.7971 60.0009 43.3308 59.3027 43.3323L58.9247 43.3331V42.9107V42.4882H59.2653C59.4526 42.4882 59.6864 42.5223 59.7849 42.5639ZM15.9578 45.366V45.8676H16.375H16.7921V45.366V44.8644H16.375H15.9578V45.366ZM17.3657 45.366V45.8676H17.7828H18.2V45.366V44.8644H17.7828H17.3657V45.366ZM8.60547 47.213V47.7133L9.50493 47.7278L10.4044 47.7422L10.4179 50.2901L10.4314 52.8378H11.0828H11.734V50.2768V47.7158H12.6206H13.5071V47.2141V46.7125H11.0562H8.60547V47.213ZM14.4574 48.8907C14.4789 51.3524 14.4968 51.4791 14.9026 52.0184C15.7593 53.1574 17.9966 53.2798 19.0462 52.2451C19.6359 51.6638 19.7098 51.2649 19.7111 48.653L19.7122 46.7125H19.0649H18.4177L18.3975 48.8379C18.3705 51.7041 18.25 51.9937 17.0855 51.9928C15.8907 51.9916 15.7502 51.6377 15.7497 48.6266L15.7491 46.7125H15.0938H14.4384L14.4574 48.8907ZM20.664 46.8049C20.6779 46.8557 21.1527 48.1687 21.7192 49.7225L22.8004 52.694L22.8521 52.8408L23.5627 52.8262L24.2734 52.8114L25.225 50.1977L26.3327 47.1482L26.489 46.7125H25.8505H25.2121L24.4313 49.0887L23.6207 51.4649C23.6044 51.4649 23.2432 50.3956 22.8182 49.0887L22.0454 46.7125H21.3421C20.6972 46.7125 20.6407 46.7202 20.664 46.8049ZM27.5859 49.7752V52.8378H28.0032H28.4202V51.4649V50.092H29.2251C30.4785 50.092 30.681 50.2524 30.7912 51.3329C30.8089 51.5072 30.8719 51.917 30.9311 52.2438L31.0388 52.8378H31.497H31.9551L31.8537 52.5079C31.7978 52.3262 31.694 51.7976 31.6231 51.3329C31.4615 50.2762 31.3713 50.0702 30.9829 49.8702L30.706 49.7275L30.8974 49.6464C32.0318 49.1665 32.1031 47.5165 31.0126 46.9804C30.5607 46.7582 30.1897 46.7134 28.7982 46.7129L27.5859 46.7125V49.7752ZM33.1654 49.7752V52.8378H33.5566H33.9475V51.4744C33.9475 49.5043 34.1458 49.0887 35.0854 49.0887C35.8366 49.0887 35.9812 49.478 35.9812 51.4986V52.8378H36.3723H36.7634V51.2827C36.7634 49.5588 36.7323 49.3013 36.4845 48.9676C36.0048 48.3222 34.8192 48.2714 34.2059 48.8699L33.9475 49.1221V47.9173V46.7125H33.5566H33.1654V49.7752ZM49.8516 49.7752V52.8378H50.2687H50.6859V49.7752V46.7125H50.2687H49.8516V49.7752ZM64.452 47.9437V49.1221L64.2013 48.8776C63.6517 48.3411 62.5851 48.3449 61.9785 48.8857C60.8804 49.8644 61.0805 52.3009 62.3023 52.8264C63.007 53.1295 63.8839 52.9501 64.282 52.4216L64.452 52.196V52.5169V52.8378H64.8764H65.3009L65.2679 52.5606C65.2498 52.4082 65.2348 51.0418 65.2346 49.5243L65.2341 46.7654H64.8431H64.452V47.9437ZM42.6402 46.9571C42.62 46.9774 42.6035 47.1804 42.6035 47.4078V47.8215H43.1009H43.5985L43.5833 47.3858L43.5682 46.9502L43.1224 46.935C42.8773 46.9268 42.6604 46.9367 42.6402 46.9571ZM30.4513 47.6102C31.0742 47.9647 31.062 48.8615 30.4296 49.191C30.1923 49.3148 30.1112 49.3256 29.2971 49.3446L28.4202 49.365V48.4032V47.4413L29.3197 47.4599C30.1649 47.4771 30.2332 47.4863 30.4513 47.6102ZM39.1769 48.5282C37.3754 49.1264 37.3064 52.3433 39.0838 52.8665C40.091 53.163 41.1495 52.7313 41.4573 51.8986C41.6012 51.5097 41.6078 51.5177 41.1474 51.5177H40.7345L40.671 51.7157C40.2848 52.9216 38.5446 52.3545 38.6503 51.0574L38.6666 50.8577L40.1473 50.8436L41.628 50.8296L41.5989 50.342C41.5456 49.4488 41.1621 48.8131 40.5434 48.5919C40.1954 48.4675 39.4626 48.4333 39.1769 48.5282ZM46.5664 48.501C46.2876 48.5946 46.0022 48.7738 45.8473 48.9524L45.6855 49.1391L45.6697 48.863L45.654 48.5871L45.2758 48.5715L44.8978 48.5561V50.6969V52.8378H45.289H45.6801V51.4744C45.6801 50.4277 45.6979 50.0503 45.7567 49.8494C45.997 49.0304 47.0886 48.8062 47.5784 49.4754C47.6826 49.6177 47.6882 49.6962 47.7028 51.2311L47.718 52.8378H48.133H48.548V51.3091C48.548 49.6083 48.5166 49.3521 48.2672 49.021C47.9501 48.6 47.072 48.3316 46.5664 48.501ZM53.0176 48.5093C52.4524 48.6542 52.1118 48.9995 52.0141 49.5268L51.9778 49.7225L52.3878 49.7204L52.7977 49.7185L52.9021 49.4988C53.2845 48.6928 54.4168 48.9307 54.4805 49.8303L54.5053 50.1821L53.808 50.2121C52.396 50.2725 51.7684 50.7286 51.7612 51.6992C51.752 52.933 53.6066 53.4525 54.3733 52.4308L54.5185 52.2374L54.5446 52.5244L54.5707 52.8114L54.9422 52.8267L55.3139 52.8423L55.2895 51.1899C55.2624 49.3609 55.2439 49.2244 54.9846 48.9337C54.6412 48.5488 53.6758 48.3406 53.0176 48.5093ZM58.3371 48.511C57.9814 48.5987 57.6794 48.7901 57.4764 49.0563L57.3603 49.2087V48.911V48.6135H56.9692H56.5782V50.7257V52.8378H56.9649H57.3516L57.3703 51.3989C57.3934 49.6194 57.4314 49.49 58.0121 49.2137C58.6393 48.9155 59.2538 49.189 59.3888 49.8265C59.4221 49.984 59.4462 50.6704 59.4462 51.4675V52.8378H59.8399H60.2336L60.2179 51.1597L60.2022 49.4816L60.0696 49.2192C59.8038 48.693 58.9747 48.3539 58.3371 48.511ZM42.7078 50.6993V52.8378H43.0989H43.49V50.6993V48.5606H43.0989H42.7078V50.6993ZM40.1171 49.1125C40.484 49.2448 40.6926 49.545 40.7563 50.0316L40.7918 50.3032H39.7162C39.071 50.3032 38.6405 50.2832 38.6405 50.253C38.6405 49.4184 39.3807 48.8465 40.1171 49.1125ZM63.6584 49.1177C64.9064 49.6449 64.6328 52.417 63.3328 52.4151C62.5249 52.414 62.1312 51.8514 62.1319 50.6993C62.1327 49.4047 62.7713 48.7432 63.6584 49.1177ZM54.4802 51.1511C54.4006 52.2767 53.1929 52.8475 52.6977 51.9935C52.3021 51.311 52.851 50.7855 53.965 50.7809L54.5064 50.7784L54.4802 51.1511Z" fill="black"/>
<path d="M28.069 23.9936L19.1655 39.4287C19.1331 39.514 19.1111 39.5073 20.4694 39.8201C25.5454 40.9891 31.3555 40.9034 36.6025 39.5824C42.5915 38.0747 48.3068 37.9876 54.0464 39.3162C54.417 39.4021 54.7296 39.4626 54.7411 39.451C54.7526 39.4394 54.2265 38.5025 53.5719 37.3689L52.3819 35.3083L52.0429 35.2479C47.3492 34.4126 41.9027 34.63 36.9727 35.8496C34.6526 36.4236 33.0702 36.6905 30.768 36.8962C29.3931 37.019 25.038 36.9618 24.897 36.819C24.8607 36.7822 36.8822 15.9621 36.9444 15.9544C36.9951 15.9482 44.216 28.369 44.2193 28.4682C44.2206 28.5055 43.9857 28.5376 43.5564 28.5587C41.7718 28.6463 39.5354 28.9779 37.5773 29.4454C35.0635 30.0454 34.2331 30.2083 32.6276 30.4155C32.0386 30.4914 31.6732 30.5621 31.6312 30.6082C31.5743 30.6704 29.7058 33.8828 29.5201 34.2373L29.4552 34.3614L29.9681 34.3271C32.5723 34.1535 34.4556 33.8613 37.1295 33.2163C41.4519 32.1736 45.4263 31.8984 49.7218 32.344C50.2381 32.3976 50.6694 32.4325 50.6803 32.4216C50.6912 32.4108 49.9889 31.1711 49.12 29.6668L36.9789 8.67534C36.9592 8.65397 32.9499 15.5473 28.069 23.9936Z" fill="#0773C7"/>
<g filter="url(#filter0_f_388_48)">
<path d="M28.069 23.9936L19.1655 39.4287C19.1331 39.514 19.1111 39.5073 20.4694 39.8201C25.5454 40.9891 31.3555 40.9034 36.6025 39.5824C42.5915 38.0747 48.3068 37.9876 54.0464 39.3162C54.417 39.4021 54.7296 39.4626 54.7411 39.451C54.7526 39.4394 54.2265 38.5025 53.5719 37.3689L52.3819 35.3083L52.0429 35.2479C47.3492 34.4126 41.9027 34.63 36.9727 35.8496C34.6526 36.4236 33.0702 36.6905 30.768 36.8962C29.3931 37.019 25.038 36.9618 24.897 36.819C24.8607 36.7822 36.8822 15.9621 36.9444 15.9544C36.9951 15.9482 44.216 28.369 44.2193 28.4682C44.2206 28.5055 43.9857 28.5376 43.5564 28.5587C41.7718 28.6463 39.5354 28.9779 37.5773 29.4454C35.0635 30.0454 34.2331 30.2083 32.6276 30.4155C32.0386 30.4914 31.6732 30.5621 31.6312 30.6082C31.5743 30.6704 29.7058 33.8828 29.5201 34.2373L29.4552 34.3614L29.9681 34.3271C32.5723 34.1535 34.4556 33.8613 37.1295 33.2163C41.4519 32.1736 45.4263 31.8984 49.7218 32.344C50.2381 32.3976 50.6694 32.4325 50.6803 32.4216C50.6912 32.4108 49.9889 31.1711 49.12 29.6668L36.9789 8.67534C36.9592 8.65397 32.9499 15.5473 28.069 23.9936Z" fill="#0773C7"/>
</g>
<g filter="url(#filter1_f_388_48)">
<path d="M4.07422 56.6998L4.1229 65.1094C4.49405 68.477 6.39238 70.6772 9.59704 71.4544C10.1637 71.5918 62.5956 71.6343 63.5228 71.498C66.5451 71.0542 68.6201 69.0369 69.307 65.8751L69.4273 65.3206V56.7732M69.0364 56.687H36.9466H4.48683M19.1075 60.9102C20.002 61.0585 20.6793 61.7043 20.7889 62.5131L20.8222 62.7596H20.1893C19.5683 62.7596 19.5566 62.7574 19.5555 62.6408C19.5476 61.8255 18.495 61.4802 17.9065 62.0998C17.2538 62.787 17.1877 64.8359 17.7944 65.581C18.3473 66.2604 19.5566 65.8839 19.5566 65.0323V64.8717H20.2116H20.8667L20.8306 65.1225C20.5385 67.1536 17.4293 67.5152 16.4882 65.6275C15.3133 63.2703 16.8331 60.533 19.1075 60.9102ZM25.7618 61.4658V61.9148H24.4843H23.2067V62.6012V63.2877H24.406H25.6054V63.7629V64.2381H24.406H23.2067V65.0038V65.7694H24.5363H25.866V66.2446V66.72H23.9368H22.0073V63.8684V61.017H23.8846H25.7618V61.4658ZM30.524 61.1231C31.7089 61.5537 31.7385 63.4112 30.5658 63.767C30.3203 63.8416 30.3261 63.895 30.5852 63.9442C31.0316 64.0291 31.1659 64.3159 31.3436 65.5625C31.4025 65.9754 31.4847 66.3959 31.5264 66.4967C31.568 66.5976 31.6019 66.6891 31.6019 66.6999C31.6019 66.7108 31.3087 66.72 30.9501 66.72C30.5915 66.72 30.2983 66.7112 30.2983 66.7003C30.2983 66.5168 30.0144 64.7579 29.9694 64.6631C29.8648 64.442 29.7015 64.3982 28.9816 64.3972L28.3169 64.3965V65.5598V66.7232L27.7042 66.7084L27.0914 66.6936L27.0779 63.8519L27.0644 61.0103L28.6945 61.0305C29.902 61.0453 30.3761 61.0695 30.524 61.1231ZM36.8685 61.4658V61.9148H36.0342H35.1999V64.3174V66.72H34.6001H34.0006V64.3174V61.9148H33.1663H32.332V61.4658V61.017H34.6001H36.8685V61.4658ZM39.0586 63.8684V66.72H38.4588H37.8592V63.8684V61.017H38.4588H39.0586V63.8684ZM44.1688 61.4658V61.9148H42.9419H41.7149L41.7294 62.6143L41.744 63.3141L42.8802 63.3284L44.0162 63.3424L44.0012 63.8036L43.9863 64.2645L42.8521 64.2788L41.7179 64.293V65.5064V66.72H41.1183H40.5185V63.8684V61.017H42.3436H44.1688V61.4658ZM46.4109 63.8684V66.72H45.8113H45.2115V63.8684V61.017H45.8113H46.4109V63.8684ZM51.6253 61.4658V61.9148H50.3478H49.0702V62.6012V63.2877H50.2716H51.4729L51.4579 63.7498L51.4428 64.2117L50.2566 64.2259L49.0702 64.2402V65.0048V65.7694H50.4019H51.7338L51.7186 66.2315L51.7036 66.6936H49.7742H47.8449L47.8314 63.8553L47.8179 61.017H49.7216H51.6253V61.4658ZM55.8184 61.1215C58.4822 61.8115 58.2984 66.2377 55.5883 66.6656C55.4019 66.6951 54.7272 66.7193 54.0891 66.7194L52.9288 66.72V63.8684V61.017H54.1721C55.24 61.017 55.4721 61.0319 55.8184 61.1215ZM28.2647 62.7118V63.5091L28.9816 63.4907C29.9322 63.4665 30.1941 63.2828 30.1941 62.6406C30.1941 62.0728 29.9327 61.9165 28.9816 61.9155L28.2647 61.9148V62.7118ZM54.1674 61.9438C54.1458 61.9665 54.1282 62.8354 54.1282 63.8744V65.7636L54.3759 65.7797C55.7163 65.8669 56.271 65.4348 56.426 64.1832C56.5552 63.139 56.1739 62.2501 55.501 62.0272C55.2657 61.9493 54.2241 61.8842 54.1674 61.9438Z" fill="#0773C7"/>
</g>
<defs>
<filter id="filter0_f_388_48" x="18.2778" y="7.79681" width="37.3429" height="33.7208" filterUnits="userSpaceOnUse" color-interpolation-filters="sRGB">
<feFlood flood-opacity="0" result="BackgroundImageFix"/>
<feBlend mode="normal" in="SourceGraphic" in2="BackgroundImageFix" result="shape"/>
<feGaussianBlur stdDeviation="0.439242" result="effect1_foregroundBlur_388_48"/>
</filter>
<filter id="filter1_f_388_48" x="3.34052" y="55.9533" width="66.819" height="16.3619" filterUnits="userSpaceOnUse" color-interpolation-filters="sRGB">
<feFlood flood-opacity="0" result="BackgroundImageFix"/>
<feBlend mode="normal" in="SourceGraphic" in2="BackgroundImageFix" result="shape"/>
<feGaussianBlur stdDeviation="0.36685" result="effect1_foregroundBlur_388_48"/>
</filter>
<linearGradient id="paint0_linear_388_48" x1="40.8283" y1="75.3136" x2="16.558" y2="-37.3924" gradientUnits="userSpaceOnUse">
<stop stop-color="#686667"/>
<stop offset="1" stop-color="#686667" stop-opacity="0"/>
</linearGradient>
<radialGradient id="paint1_radial_388_48" cx="0" cy="0" r="1" gradientUnits="userSpaceOnUse" gradientTransform="translate(13.2091 56.9817) scale(8.67384 8.91917)">
<stop stop-color="white"/>
<stop offset="1" stop-color="white" stop-opacity="0"/>
</radialGradient>
</defs>
</svg>
